<?xml version="1.0" encoding="UTF-8"?>
<svg id="Layer_1" data-name="Layer 1" xmlns="http://www.w3.org/2000/svg" version="1.1" viewBox="0 0 1000 1000">
  <defs>
    <style>
      .cls-1 {
        fill: #ededed;
        stroke-width: 0px;
      }
    </style>
  </defs>
  <polygon class="cls-1" points="508.95 319.28 418.65 375.65 485.9 414.73 579.37 360.21 508.95 319.28"/>
  <polygon class="cls-1" points="850.7 376.3 577 534.32 577 618.8 850.7 460.78 850.7 376.3"/>
  <polygon class="cls-1" points="421.09 268.22 328.32 323.14 385.25 356.23 475.54 299.87 421.09 268.22"/>
  <path class="cls-1" d="M909,250.02L523.91,27.69c-7.22-4.17-16.12-4.17-23.35,0L115.46,250.02c-7.22,4.17-11.67,11.88-11.67,20.22v444.67c0,8.34,4.45,16.05,11.67,20.22l385.1,222.34c7.22,4.17,16.12,4.17,23.35,0l385.1-222.34c7.22-4.17,11.67-11.88,11.67-20.22v-444.67c0-8.34-4.45-16.05-11.67-20.22ZM376.8,138.14l132.1-75.89c4.13-2.38,9.07-2.92,13.62-1.49,4.55,1.43,8.3,4.69,10.33,9.01l41.74,88.44,49.99-28.72c5.29-3.04,11.81-3.03,17.09.04l199.03,115.68c5.27,3.06,8.51,8.71,8.5,14.81-.02,6.1-3.28,11.73-8.57,14.77l-76.47,43.93c-8.18,4.7-18.62,1.88-23.32-6.3-4.7-8.18-1.88-18.62,6.3-23.32l50.84-29.21-164.95-95.87-57.49,33.03c-4.13,2.37-9.08,2.91-13.62,1.49-4.55-1.43-8.3-4.69-10.33-9.01l-41.74-88.44-90.41,51.94,289.16,168.06c8.16,4.74,10.92,15.19,6.19,23.35-3.17,5.45-8.9,8.5-14.78,8.5-2.91,0-5.87-.75-8.57-2.32l-314.72-182.92c-5.27-3.06-8.51-8.71-8.5-14.81.02-6.1,3.28-11.73,8.57-14.77ZM729.12,273.56c-3.24,5.18-8.81,8.02-14.49,8.02-3.1,0-6.23-.84-9.05-2.6l-79.55-49.79c-8-5.01-10.42-15.54-5.42-23.54,5.01-8,15.55-10.42,23.54-5.42l79.54,49.79c8,5.01,10.42,15.54,5.42,23.54ZM301.09,759.43c0,7.55-4.95,14.2-12.19,16.36-1.62.48-3.27.72-4.89.72-5.64,0-11.06-2.81-14.28-7.7l-60.88-92.65c-5.18-7.88-2.99-18.47,4.9-23.65,7.88-5.18,18.48-2.99,23.65,4.9l29.52,44.93v-124.52l-94.36-56.58v161.14c0,9.43-7.65,17.08-17.08,17.08s-17.08-7.65-17.08-17.08v-342.58c0-9.43,7.65-17.08,17.08-17.08s17.08,7.65,17.08,17.08v141.61l120.22,72.08c5.15,3.09,8.3,8.65,8.3,14.65v191.29ZM202,451.08l52.37-42.77c7.31-5.97,18.07-4.88,24.03,2.42,5.97,7.31,4.88,18.07-2.42,24.03l-52.37,42.77c-3.17,2.59-6.99,3.85-10.79,3.85-4.95,0-9.86-2.14-13.24-6.28-5.97-7.31-4.88-18.07,2.42-24.03ZM477.29,867.39c-3.06,5.81-8.99,9.13-15.13,9.13-2.68,0-5.4-.63-7.94-1.97l-59.83-31.47c-3.24-1.71-5.85-4.41-7.44-7.71l-12.22-25.38-46.43-6.49c-9.34-1.31-15.86-9.94-14.55-19.28,1.31-9.34,9.95-15.85,19.28-14.55l36.04,5.04v-137.52l-46.94-27.1c-8.17-4.72-10.97-15.16-6.25-23.33,4.72-8.17,15.16-10.96,23.33-6.25l29.86,17.24v-111.84l-46.94-27.1c-8.17-4.72-10.97-15.16-6.25-23.33,4.72-8.17,15.16-10.97,23.33-6.25l55.48,32.03c5.28,3.05,8.54,8.69,8.54,14.79v314.41l12.05,25.02,54.84,28.85c8.35,4.39,11.56,14.72,7.17,23.07ZM454.98,733.77c9.43,0,17.08,7.65,17.08,17.08v17.2c0,9.43-7.65,17.08-17.08,17.08s-17.08-7.65-17.08-17.08v-17.2c0-9.43,7.65-17.08,17.08-17.08ZM437.9,669.3v-156.33c0-9.43,7.65-17.08,17.08-17.08s17.08,7.65,17.08,17.08v156.33c0,9.43-7.65,17.08-17.08,17.08s-17.08-7.65-17.08-17.08ZM525.98,457.78c-3.17,5.46-8.9,8.5-14.78,8.5-2.91,0-5.87-.75-8.57-2.32l-123.98-72.05c-1.25-.54-2.44-1.22-3.54-2.06l-187.21-108.81c-5.3-3.08-8.54-8.76-8.5-14.88.04-6.13,3.36-11.76,8.69-14.77l129.59-73.04c5.27-2.97,11.73-2.93,16.97.11l182.37,106s.06.03.08.05l132.26,76.87c8.16,4.74,10.92,15.19,6.18,23.35-4.74,8.16-15.19,10.92-23.35,6.18l-18.89-10.98-93.47,54.52c8.1,4.76,10.85,15.17,6.12,23.31ZM542.84,524.46c0-6.1,3.26-11.74,8.54-14.79l307.86-177.74c5.28-3.05,11.8-3.05,17.08,0,5.28,3.05,8.54,8.69,8.54,14.79v156.95c0,9.43-7.65,17.08-17.08,17.08s-17.08-7.65-17.08-17.08v-3.44l-273.7,158.02v8.96c0,9.43-7.65,17.08-17.08,17.08s-17.08-7.65-17.08-17.08v-142.74ZM674.37,794.41l-38.13,40.55c-3.36,3.57-7.9,5.38-12.45,5.38-4.2,0-8.4-1.54-11.7-4.64-6.87-6.46-7.2-17.27-.74-24.14l38.13-40.55c6.46-6.87,17.27-7.21,24.14-.74,6.87,6.46,7.2,17.27.74,24.14ZM829.64,722.17c-.67,8.97-8.16,15.8-17.02,15.8-.43,0-.86-.02-1.3-.05l-48.36-3.63c-9.41-.71-16.46-8.91-15.75-18.31.71-9.41,8.91-16.43,18.31-15.75l48.36,3.63c9.41.71,16.46,8.91,15.75,18.31ZM880.78,613.2l-145.39,83.94v73c0,9.43-7.65,17.08-17.08,17.08s-17.08-7.65-17.08-17.08v-53.28l-128.31,74.08c-2.69,1.55-5.63,2.29-8.52,2.29-5.9,0-11.64-3.06-14.81-8.54-4.72-8.17-1.92-18.61,6.25-23.33l145.39-83.94v-25.34l-86.52,49.95c-2.69,1.55-5.63,2.29-8.52,2.29-5.9,0-11.64-3.06-14.81-8.54-4.72-8.17-1.92-18.61,6.25-23.33l227.88-131.57c8.17-4.71,18.62-1.92,23.33,6.25,4.72,8.17,1.92,18.61-6.25,23.33l-107.2,61.89v25.34l128.31-74.08c8.17-4.71,18.62-1.92,23.33,6.25,4.72,8.17,1.92,18.61-6.25,23.33Z"/>
  <polygon class="cls-1" points="325.95 212.92 230.87 266.51 294.48 303.48 387.25 248.55 325.95 212.92"/>
</svg>