<?xml version="1.0" encoding="UTF-8"?>
<svg id="Layer_1" data-name="Layer 1" xmlns="http://www.w3.org/2000/svg" version="1.1" viewBox="0 0 1000 1000">
  <defs>
    <style>
      .cls-1 {
        fill: #f0efef;
        stroke-width: 0px;
      }
    </style>
  </defs>
  <g>
    <path class="cls-1" d="M522.49,701.2c10.72,0,19.4-8.69,19.4-19.4v-10.18l310.95-179.53v3.91c0,10.72,8.69,19.4,19.4,19.4s19.4-8.69,19.4-19.4v-178.31c0-6.93-3.7-13.34-9.7-16.8-6-3.47-13.4-3.47-19.4,0l-349.76,201.94c-6,3.47-9.7,9.87-9.7,16.8v162.17c0,10.72,8.69,19.4,19.4,19.4ZM852.85,351.3v95.98l-310.95,179.53v-95.98l310.95-179.53Z"/>
    <path class="cls-1" d="M894.13,593.93c-5.36-9.28-17.22-12.46-26.51-7.1l-145.78,84.16v-28.79l121.79-70.31c9.28-5.36,12.46-17.23,7.1-26.51-5.36-9.28-17.22-12.46-26.51-7.1l-258.89,149.47c-9.28,5.36-12.46,17.23-7.1,26.51,3.59,6.23,10.12,9.71,16.82,9.71,3.29,0,6.63-.84,9.68-2.6l98.3-56.75v28.79l-165.18,95.37c-9.28,5.36-12.46,17.23-7.1,26.51,3.59,6.23,10.12,9.71,16.82,9.71,3.29,0,6.63-.84,9.68-2.6l145.77-84.16v60.53c0,10.72,8.69,19.4,19.4,19.4s19.4-8.69,19.4-19.4v-82.94l165.18-95.37c9.28-5.36,12.46-17.23,7.1-26.51Z"/>
    <path class="cls-1" d="M811.03,723.43l-54.94-4.13c-10.68-.78-20,7.21-20.81,17.9-.8,10.69,7.21,20,17.9,20.81l54.94,4.13c.49.04.99.05,1.47.05,10.06,0,18.57-7.76,19.33-17.95.8-10.69-7.21-20-17.9-20.81Z"/>
    <path class="cls-1" d="M624.25,799.72l-43.32,46.07c-7.34,7.81-6.96,20.09.84,27.43,3.75,3.52,8.52,5.27,13.29,5.27,5.17,0,10.32-2.05,14.14-6.11l43.32-46.07c7.34-7.81,6.96-20.09-.84-27.43-7.81-7.34-20.09-6.96-27.43.84Z"/>
  </g>
  <path class="cls-1" d="M510.61,429.35l97.88-57.2,19.62,11.43c9.26,5.39,21.14,2.26,26.53-7,5.39-9.26,2.26-21.14-7.01-26.53l-141.5-82.39s-.08-.05-.12-.07l-195.04-113.57c-5.96-3.47-13.31-3.52-19.31-.13l-138.62,78.27c-6.06,3.42-9.82,9.82-9.86,16.77-.05,6.95,3.63,13.4,9.64,16.9l200.19,116.57c1.21.91,2.51,1.66,3.88,2.26l132.59,77.21c3.07,1.79,6.43,2.64,9.75,2.64,6.68,0,13.18-3.45,16.79-9.64,5.07-8.71,2.6-19.72-5.41-25.49ZM472.18,406.86l-69.79-40.64,94.47-59.07,73.1,42.56-97.78,57.15ZM305.8,309.98l97.05-57.57,56.1,32.67-94.47,59.07-58.69-34.17ZM301.07,193.14l63.4,36.92-97.05,57.57-65.81-38.32,99.46-56.16Z"/>
  <path class="cls-1" d="M350.96,150.14l336.66,196.03c3.07,1.79,6.43,2.64,9.75,2.64,6.68,0,13.18-3.45,16.79-9.64,5.39-9.26,2.26-21.14-7.01-26.53l-307.69-179.17,94-54.1,44.12,93.67c2.31,4.91,6.57,8.62,11.75,10.24,5.17,1.62,10.79,1.01,15.49-1.7l60.92-35.06,174.23,101.46-52.75,30.36c-9.29,5.35-12.48,17.21-7.14,26.5,5.35,9.29,17.21,12.49,26.5,7.14l81.8-47.08c6-3.45,9.71-9.84,9.72-16.77s-3.66-13.33-9.64-16.82l-212.91-123.98c-6.01-3.5-13.42-3.52-19.44-.05l-52.39,30.16-44.12-93.67c-2.31-4.91-6.57-8.62-11.75-10.24-5.17-1.63-10.79-1.01-15.49,1.7l-141.3,81.33c-6,3.45-9.71,9.84-9.72,16.77s3.66,13.33,9.64,16.82Z"/>
  <path class="cls-1" d="M636.32,183.12c-9.08-5.69-21.05-2.95-26.75,6.13s-2.95,21.06,6.13,26.75l85.09,53.36c3.2,2.01,6.77,2.97,10.29,2.97,6.46,0,12.77-3.22,16.46-9.1,5.69-9.08,2.95-21.06-6.13-26.75l-85.09-53.36Z"/>
  <g>
    <path class="cls-1" d="M476.05,899.19l-59.99-32.7-13.24-28.5v-357.34c0-6.83-3.59-13.15-9.44-16.65l-60.84-36.39c-9.19-5.5-21.11-2.51-26.61,6.69-5.5,9.2-2.51,21.11,6.69,26.61l51.4,30.74v126.65l-31.48-18.83c-9.19-5.5-21.11-2.5-26.61,6.69-5.5,9.2-2.51,21.11,6.69,26.62l51.4,30.74v156.33l-38.65-5.6c-10.62-1.55-20.45,5.81-21.99,16.42-1.54,10.61,5.81,20.45,16.42,21.99l50.45,7.31,13.32,28.67c1.75,3.77,4.66,6.87,8.31,8.86l65.61,35.76c2.95,1.61,6.13,2.37,9.27,2.37,6.87,0,13.54-3.66,17.06-10.12,5.13-9.41,1.66-21.2-7.75-26.32Z"/>
    <path class="cls-1" d="M273.47,560.63l-131.77-81.85v-161.08c0-10.72-8.69-19.4-19.4-19.4s-19.4,8.69-19.4,19.4v389.2c0,10.72,8.69,19.4,19.4,19.4s19.4-8.69,19.4-19.4v-182.43l102.12,63.44v139.71l-30.97-48.83c-5.74-9.05-17.73-11.73-26.78-5.99-9.05,5.74-11.73,17.73-5.99,26.78l66.76,105.26c3.62,5.71,9.87,9.01,16.39,9.01,1.8,0,3.62-.25,5.41-.77,8.29-2.41,13.99-10,13.99-18.63v-217.33c0-6.71-3.47-12.94-9.17-16.48Z"/>
    <path class="cls-1" d="M185.16,478.55c4.43,0,8.88-1.51,12.52-4.59l57.43-48.59c8.18-6.92,9.2-19.17,2.28-27.35-6.92-8.18-19.17-9.2-27.35-2.28l-57.43,48.59c-8.18,6.92-9.2,19.17-2.28,27.35,3.84,4.54,9.31,6.87,14.82,6.87Z"/>
  </g>
  <path class="cls-1" d="M450.34,692c10.72,0,19.4-8.69,19.4-19.4v-159.97c0-10.72-8.69-19.4-19.4-19.4s-19.4,8.69-19.4,19.4v159.97c0,10.72,8.69,19.4,19.4,19.4Z"/>
  <path class="cls-1" d="M430.93,784.79c0,10.72,8.69,19.4,19.4,19.4s19.4-8.69,19.4-19.4v-19.54c0-10.72-8.69-19.4-19.4-19.4s-19.4,8.69-19.4,19.4v19.54Z"/>
</svg>